<mxfile host="app.diagrams.net" modified="2020-08-28T10:44:20.105Z" agent="5.0 (Windows NT 10.0; Win64; x64) AppleWebKit/537.36 (KHTML, like Gecko) Chrome/84.0.4147.89 Safari/537.36" etag="cCvFBEzdSB4A43VcZH_R" version="12.9.13" type="github" pages="3">
  <diagram id="uAGHqdR6yBH4FR-mvTkx" name="Page-1">
    <mxGraphModel dx="1422" dy="794" grid="0" gridSize="10" guides="1" tooltips="1" connect="1" arrows="1" fold="1" page="1" pageScale="1" pageWidth="827" pageHeight="1169" math="0" shadow="0">
      <root>
        <mxCell id="0" />
        <mxCell id="1" parent="0" />
        <mxCell id="ln6D1jQKS10jne8EITAd-1" value="" style="endArrow=none;html=1;" parent="1" edge="1">
          <mxGeometry width="50" height="50" relative="1" as="geometry">
            <mxPoint x="150" y="200" as="sourcePoint" />
            <mxPoint x="687" y="200" as="targetPoint" />
          </mxGeometry>
        </mxCell>
        <mxCell id="ln6D1jQKS10jne8EITAd-2" value="" style="outlineConnect=0;fontColor=#232F3E;gradientColor=none;fillColor=#232F3E;strokeColor=none;dashed=0;verticalLabelPosition=bottom;verticalAlign=top;align=center;html=1;fontSize=12;fontStyle=0;aspect=fixed;pointerEvents=1;shape=mxgraph.aws4.mobile_client;" parent="1" vertex="1">
          <mxGeometry x="311" y="112" width="26.28" height="50" as="geometry" />
        </mxCell>
        <mxCell id="ln6D1jQKS10jne8EITAd-3" value="" style="pointerEvents=1;shadow=0;dashed=0;html=1;strokeColor=none;fillColor=#505050;labelPosition=center;verticalLabelPosition=bottom;verticalAlign=top;outlineConnect=0;align=center;shape=mxgraph.office.concepts.web_page;" parent="1" vertex="1">
          <mxGeometry x="374" y="110" width="50" height="54" as="geometry" />
        </mxCell>
        <mxCell id="ln6D1jQKS10jne8EITAd-4" value="外网" style="text;html=1;align=center;verticalAlign=middle;resizable=0;points=[];autosize=1;" parent="1" vertex="1">
          <mxGeometry x="158" y="162" width="34" height="18" as="geometry" />
        </mxCell>
        <mxCell id="ln6D1jQKS10jne8EITAd-7" value="内网" style="text;html=1;align=center;verticalAlign=middle;resizable=0;points=[];autosize=1;" parent="1" vertex="1">
          <mxGeometry x="158" y="209" width="34" height="18" as="geometry" />
        </mxCell>
        <mxCell id="ln6D1jQKS10jne8EITAd-9" value="https" style="text;html=1;align=center;verticalAlign=middle;resizable=0;points=[];autosize=1;" parent="1" vertex="1">
          <mxGeometry x="337.5" y="180" width="36" height="18" as="geometry" />
        </mxCell>
        <mxCell id="ln6D1jQKS10jne8EITAd-11" value="接入层" style="text;html=1;align=center;verticalAlign=middle;resizable=0;points=[];autosize=1;" parent="1" vertex="1">
          <mxGeometry x="158" y="259" width="46" height="18" as="geometry" />
        </mxCell>
        <mxCell id="ln6D1jQKS10jne8EITAd-14" value="" style="endArrow=none;dashed=1;html=1;" parent="1" edge="1">
          <mxGeometry width="50" height="50" relative="1" as="geometry">
            <mxPoint x="150" y="300" as="sourcePoint" />
            <mxPoint x="600" y="300" as="targetPoint" />
          </mxGeometry>
        </mxCell>
        <mxCell id="ln6D1jQKS10jne8EITAd-15" value="" style="endArrow=none;dashed=1;html=1;" parent="1" edge="1">
          <mxGeometry width="50" height="50" relative="1" as="geometry">
            <mxPoint x="150" y="230" as="sourcePoint" />
            <mxPoint x="600" y="230" as="targetPoint" />
          </mxGeometry>
        </mxCell>
        <mxCell id="ln6D1jQKS10jne8EITAd-16" value="业务层" style="text;html=1;align=center;verticalAlign=middle;resizable=0;points=[];autosize=1;" parent="1" vertex="1">
          <mxGeometry x="156" y="328.5" width="46" height="18" as="geometry" />
        </mxCell>
        <mxCell id="ln6D1jQKS10jne8EITAd-22" value="数据层" style="text;html=1;align=center;verticalAlign=middle;resizable=0;points=[];autosize=1;" parent="1" vertex="1">
          <mxGeometry x="157" y="475.5" width="46" height="18" as="geometry" />
        </mxCell>
        <mxCell id="ln6D1jQKS10jne8EITAd-25" value="tcaplus" style="strokeWidth=2;html=1;shape=mxgraph.flowchart.database;whiteSpace=wrap;" parent="1" vertex="1">
          <mxGeometry x="337.28" y="462.5" width="48.72" height="49" as="geometry" />
        </mxCell>
        <mxCell id="ln6D1jQKS10jne8EITAd-27" value="" style="endArrow=none;dashed=1;html=1;" parent="1" edge="1">
          <mxGeometry width="50" height="50" relative="1" as="geometry">
            <mxPoint x="423" y="550" as="sourcePoint" />
            <mxPoint x="423" y="439" as="targetPoint" />
          </mxGeometry>
        </mxCell>
        <mxCell id="ln6D1jQKS10jne8EITAd-28" value="" style="pointerEvents=1;shadow=0;dashed=0;html=1;strokeColor=none;fillColor=#505050;labelPosition=center;verticalLabelPosition=bottom;verticalAlign=top;outlineConnect=0;align=center;shape=mxgraph.office.concepts.website;" parent="1" vertex="1">
          <mxGeometry x="457" y="460" width="59" height="49" as="geometry" />
        </mxCell>
        <mxCell id="ln6D1jQKS10jne8EITAd-29" value="运营平台" style="text;html=1;align=center;verticalAlign=middle;resizable=0;points=[];autosize=1;" parent="1" vertex="1">
          <mxGeometry x="455" y="523" width="58" height="18" as="geometry" />
        </mxCell>
        <mxCell id="ln6D1jQKS10jne8EITAd-36" value="" style="endArrow=none;dashed=1;html=1;" parent="1" edge="1">
          <mxGeometry width="50" height="50" relative="1" as="geometry">
            <mxPoint x="150" y="550" as="sourcePoint" />
            <mxPoint x="600" y="550" as="targetPoint" />
          </mxGeometry>
        </mxCell>
        <mxCell id="ln6D1jQKS10jne8EITAd-37" value="" style="endArrow=none;dashed=1;html=1;" parent="1" edge="1">
          <mxGeometry width="50" height="50" relative="1" as="geometry">
            <mxPoint x="596" y="550" as="sourcePoint" />
            <mxPoint x="596" y="200" as="targetPoint" />
          </mxGeometry>
        </mxCell>
        <mxCell id="ln6D1jQKS10jne8EITAd-38" value="监控" style="text;html=1;align=center;verticalAlign=middle;resizable=0;points=[];autosize=1;" parent="1" vertex="1">
          <mxGeometry x="622" y="232" width="34" height="18" as="geometry" />
        </mxCell>
        <mxCell id="ln6D1jQKS10jne8EITAd-39" value="夸克/mo" style="aspect=fixed;pointerEvents=1;shadow=0;dashed=0;html=1;strokeColor=none;labelPosition=center;verticalLabelPosition=bottom;verticalAlign=top;align=center;fillColor=#505050;shape=mxgraph.mscae.enterprise.performance_monitor;fontSize=7;" parent="1" vertex="1">
          <mxGeometry x="612" y="308" width="69.44" height="50" as="geometry" />
        </mxCell>
        <mxCell id="1myBJ8rJOCvfeBRTNlOO-1" value="" style="endArrow=none;dashed=1;html=1;" parent="1" edge="1">
          <mxGeometry width="50" height="50" relative="1" as="geometry">
            <mxPoint x="295" y="550" as="sourcePoint" />
            <mxPoint x="295" y="440" as="targetPoint" />
          </mxGeometry>
        </mxCell>
        <mxCell id="8TDgDvUjmPwG_3j7K9Ps-2" value="" style="points=[];aspect=fixed;html=1;align=center;shadow=0;dashed=0;image;image=img/lib/allied_telesis/computer_and_terminals/Server_Desktop.svg;strokeColor=#000000;fillColor=#FFFFFF;fontSize=7;" parent="1" vertex="1">
          <mxGeometry x="226" y="457.5" width="42.599999999999994" height="54" as="geometry" />
        </mxCell>
        <mxCell id="8TDgDvUjmPwG_3j7K9Ps-4" value="离线定时任务" style="text;html=1;align=center;verticalAlign=middle;resizable=0;points=[];autosize=1;fontSize=7;" parent="1" vertex="1">
          <mxGeometry x="203" y="526" width="82" height="12" as="geometry" />
        </mxCell>
        <mxCell id="uD09l1bMyOzCBjQLLHqf-1" value="" style="endArrow=none;dashed=1;html=1;" parent="1" edge="1">
          <mxGeometry width="50" height="50" relative="1" as="geometry">
            <mxPoint x="150" y="440" as="sourcePoint" />
            <mxPoint x="600" y="440" as="targetPoint" />
          </mxGeometry>
        </mxCell>
        <mxCell id="_ajbSfKd2w9EbYuYvKKn-1" value="接入服务" style="rounded=0;whiteSpace=wrap;html=1;strokeColor=#000000;fillColor=#FFFFFF;fontSize=7;" parent="1" vertex="1">
          <mxGeometry x="304.75" y="247" width="101.5" height="35" as="geometry" />
        </mxCell>
        <mxCell id="_ajbSfKd2w9EbYuYvKKn-2" value="礼包" style="rounded=0;whiteSpace=wrap;html=1;strokeColor=#000000;fillColor=#FFFFFF;fontSize=7;" parent="1" vertex="1">
          <mxGeometry x="230.5" y="320" width="101.5" height="35" as="geometry" />
        </mxCell>
        <mxCell id="_ajbSfKd2w9EbYuYvKKn-3" value="充值" style="rounded=0;whiteSpace=wrap;html=1;strokeColor=#000000;fillColor=#FFFFFF;fontSize=7;" parent="1" vertex="1">
          <mxGeometry x="461.5" y="320" width="101.5" height="35" as="geometry" />
        </mxCell>
        <mxCell id="_ajbSfKd2w9EbYuYvKKn-4" value="抽奖" style="rounded=0;whiteSpace=wrap;html=1;strokeColor=#000000;fillColor=#FFFFFF;fontSize=7;" parent="1" vertex="1">
          <mxGeometry x="345" y="320" width="101.5" height="35" as="geometry" />
        </mxCell>
        <mxCell id="_ajbSfKd2w9EbYuYvKKn-5" value="应用宝" style="rounded=0;whiteSpace=wrap;html=1;strokeColor=#000000;fillColor=#FFFFFF;fontSize=7;" parent="1" vertex="1">
          <mxGeometry x="226" y="388" width="101.5" height="35" as="geometry" />
        </mxCell>
        <mxCell id="_ajbSfKd2w9EbYuYvKKn-6" value="AMS/心悦" style="rounded=0;whiteSpace=wrap;html=1;strokeColor=#000000;fillColor=#FFFFFF;fontSize=7;" parent="1" vertex="1">
          <mxGeometry x="340.5" y="388" width="101.5" height="35" as="geometry" />
        </mxCell>
        <mxCell id="_ajbSfKd2w9EbYuYvKKn-7" value="米大师" style="rounded=0;whiteSpace=wrap;html=1;strokeColor=#000000;fillColor=#FFFFFF;fontSize=7;" parent="1" vertex="1">
          <mxGeometry x="461.5" y="388" width="101.5" height="35" as="geometry" />
        </mxCell>
        <mxCell id="_ajbSfKd2w9EbYuYvKKn-8" value="第三方接口" style="text;html=1;align=center;verticalAlign=middle;resizable=0;points=[];autosize=1;fontSize=7;" parent="1" vertex="1">
          <mxGeometry x="139.5" y="402" width="70" height="12" as="geometry" />
        </mxCell>
        <mxCell id="_ajbSfKd2w9EbYuYvKKn-9" value="" style="endArrow=none;dashed=1;html=1;" parent="1" edge="1">
          <mxGeometry width="50" height="50" relative="1" as="geometry">
            <mxPoint x="150" y="370" as="sourcePoint" />
            <mxPoint x="600" y="370" as="targetPoint" />
          </mxGeometry>
        </mxCell>
        <mxCell id="NtS5UzKV2-8aSRadh5cR-1" value="" style="aspect=fixed;pointerEvents=1;shadow=0;dashed=0;html=1;strokeColor=none;labelPosition=center;verticalLabelPosition=bottom;verticalAlign=top;align=center;shape=mxgraph.mscae.enterprise.website_generic;fillColor=#505050;fontSize=7;" parent="1" vertex="1">
          <mxGeometry x="532" y="462.5" width="50" height="44" as="geometry" />
        </mxCell>
        <mxCell id="NtS5UzKV2-8aSRadh5cR-2" value="自助平台" style="text;html=1;align=center;verticalAlign=middle;resizable=0;points=[];autosize=1;fontSize=7;" parent="1" vertex="1">
          <mxGeometry x="524" y="526" width="58" height="12" as="geometry" />
        </mxCell>
        <mxCell id="NtS5UzKV2-8aSRadh5cR-3" value="DB" style="text;html=1;align=center;verticalAlign=middle;resizable=0;points=[];autosize=1;fontSize=7;" parent="1" vertex="1">
          <mxGeometry x="347" y="526" width="27" height="12" as="geometry" />
        </mxCell>
      </root>
    </mxGraphModel>
  </diagram>
  <diagram id="mMejQ5vSOBC527m8lbAT" name="Page-2">
    <mxGraphModel dx="1422" dy="794" grid="0" gridSize="10" guides="1" tooltips="1" connect="1" arrows="1" fold="1" page="1" pageScale="1" pageWidth="827" pageHeight="1169" math="0" shadow="0">
      <root>
        <mxCell id="6dDkUr7TiwL2FOEABFFe-0" />
        <mxCell id="6dDkUr7TiwL2FOEABFFe-1" parent="6dDkUr7TiwL2FOEABFFe-0" />
        <mxCell id="6kBrHfTqFUpDmSiz5ydv-13" style="edgeStyle=orthogonalEdgeStyle;rounded=0;orthogonalLoop=1;jettySize=auto;html=1;fontSize=7;" parent="6dDkUr7TiwL2FOEABFFe-1" source="CgSU6Xoaf8ozULh6oIoy-0" target="6kBrHfTqFUpDmSiz5ydv-10" edge="1">
          <mxGeometry relative="1" as="geometry" />
        </mxCell>
        <mxCell id="CgSU6Xoaf8ozULh6oIoy-0" value="" style="pointerEvents=1;shadow=0;dashed=0;html=1;strokeColor=none;fillColor=#505050;labelPosition=center;verticalLabelPosition=bottom;verticalAlign=top;outlineConnect=0;align=center;shape=mxgraph.office.concepts.web_page;" parent="6dDkUr7TiwL2FOEABFFe-1" vertex="1">
          <mxGeometry x="388.36" y="101" width="50" height="54" as="geometry" />
        </mxCell>
        <mxCell id="gDBNp-k2t2mQQm4Rj_xC-1" style="edgeStyle=orthogonalEdgeStyle;rounded=0;orthogonalLoop=1;jettySize=auto;html=1;entryX=0.5;entryY=0;entryDx=0;entryDy=0;entryPerimeter=0;fontSize=7;" parent="6dDkUr7TiwL2FOEABFFe-1" source="1Rci9zAW9OrsI7YWHqRy-1" target="gDBNp-k2t2mQQm4Rj_xC-0" edge="1">
          <mxGeometry relative="1" as="geometry" />
        </mxCell>
        <mxCell id="1Rci9zAW9OrsI7YWHqRy-1" value="" style="rounded=0;whiteSpace=wrap;html=1;strokeColor=#000000;fillColor=#FFFFFF;fontSize=7;" parent="6dDkUr7TiwL2FOEABFFe-1" vertex="1">
          <mxGeometry x="187" y="310" width="453" height="88" as="geometry" />
        </mxCell>
        <mxCell id="6kBrHfTqFUpDmSiz5ydv-7" style="edgeStyle=orthogonalEdgeStyle;rounded=0;orthogonalLoop=1;jettySize=auto;html=1;fontSize=7;" parent="6dDkUr7TiwL2FOEABFFe-1" source="6kBrHfTqFUpDmSiz5ydv-0" target="6kBrHfTqFUpDmSiz5ydv-2" edge="1">
          <mxGeometry relative="1" as="geometry" />
        </mxCell>
        <mxCell id="6kBrHfTqFUpDmSiz5ydv-0" value="" style="points=[];aspect=fixed;html=1;align=center;shadow=0;dashed=0;image;image=img/lib/allied_telesis/computer_and_terminals/Server_Desktop.svg;strokeColor=#000000;fillColor=#FFFFFF;fontSize=7;" parent="6dDkUr7TiwL2FOEABFFe-1" vertex="1">
          <mxGeometry x="322" y="324" width="42.599999999999994" height="54" as="geometry" />
        </mxCell>
        <mxCell id="6kBrHfTqFUpDmSiz5ydv-8" style="edgeStyle=orthogonalEdgeStyle;rounded=0;orthogonalLoop=1;jettySize=auto;html=1;fontSize=7;" parent="6dDkUr7TiwL2FOEABFFe-1" source="6kBrHfTqFUpDmSiz5ydv-2" target="6kBrHfTqFUpDmSiz5ydv-0" edge="1">
          <mxGeometry relative="1" as="geometry" />
        </mxCell>
        <mxCell id="6kBrHfTqFUpDmSiz5ydv-2" value="" style="points=[];aspect=fixed;html=1;align=center;shadow=0;dashed=0;image;image=img/lib/allied_telesis/computer_and_terminals/Server_Desktop.svg;strokeColor=#000000;fillColor=#FFFFFF;fontSize=7;" parent="6dDkUr7TiwL2FOEABFFe-1" vertex="1">
          <mxGeometry x="489" y="324" width="42.599999999999994" height="54" as="geometry" />
        </mxCell>
        <mxCell id="6kBrHfTqFUpDmSiz5ydv-4" value="http" style="text;html=1;align=center;verticalAlign=middle;resizable=0;points=[];autosize=1;fontSize=7;" parent="6dDkUr7TiwL2FOEABFFe-1" vertex="1">
          <mxGeometry x="414" y="277" width="30" height="12" as="geometry" />
        </mxCell>
        <mxCell id="6kBrHfTqFUpDmSiz5ydv-5" value="VIP" style="text;html=1;align=center;verticalAlign=middle;resizable=0;points=[];autosize=1;fontSize=7;" parent="6dDkUr7TiwL2FOEABFFe-1" vertex="1">
          <mxGeometry x="193" y="316" width="29" height="12" as="geometry" />
        </mxCell>
        <mxCell id="6kBrHfTqFUpDmSiz5ydv-9" value="LVS + keepalive" style="text;html=1;align=center;verticalAlign=middle;resizable=0;points=[];autosize=1;fontSize=7;" parent="6dDkUr7TiwL2FOEABFFe-1" vertex="1">
          <mxGeometry x="379" y="335" width="96" height="12" as="geometry" />
        </mxCell>
        <mxCell id="6kBrHfTqFUpDmSiz5ydv-14" style="edgeStyle=orthogonalEdgeStyle;rounded=0;orthogonalLoop=1;jettySize=auto;html=1;entryX=0.5;entryY=0;entryDx=0;entryDy=0;fontSize=7;" parent="6dDkUr7TiwL2FOEABFFe-1" source="6kBrHfTqFUpDmSiz5ydv-10" target="1Rci9zAW9OrsI7YWHqRy-1" edge="1">
          <mxGeometry relative="1" as="geometry" />
        </mxCell>
        <mxCell id="6kBrHfTqFUpDmSiz5ydv-10" value="" style="points=[];aspect=fixed;html=1;align=center;shadow=0;dashed=0;image;image=img/lib/allied_telesis/computer_and_terminals/Server_Desktop.svg;strokeColor=#000000;fillColor=#FFFFFF;fontSize=7;" parent="6dDkUr7TiwL2FOEABFFe-1" vertex="1">
          <mxGeometry x="392.2" y="207" width="42.599999999999994" height="54" as="geometry" />
        </mxCell>
        <mxCell id="6kBrHfTqFUpDmSiz5ydv-11" value="nginx" style="text;html=1;align=center;verticalAlign=middle;resizable=0;points=[];autosize=1;fontSize=7;" parent="6dDkUr7TiwL2FOEABFFe-1" vertex="1">
          <mxGeometry x="434.8" y="226" width="39" height="12" as="geometry" />
        </mxCell>
        <mxCell id="6kBrHfTqFUpDmSiz5ydv-15" value="http" style="text;html=1;align=center;verticalAlign=middle;resizable=0;points=[];autosize=1;fontSize=7;" parent="6dDkUr7TiwL2FOEABFFe-1" vertex="1">
          <mxGeometry x="414" y="175" width="30" height="12" as="geometry" />
        </mxCell>
        <mxCell id="6kBrHfTqFUpDmSiz5ydv-16" value="rs" style="text;html=1;align=center;verticalAlign=middle;resizable=0;points=[];autosize=1;fontSize=7;" parent="6dDkUr7TiwL2FOEABFFe-1" vertex="1">
          <mxGeometry x="293" y="348" width="20" height="12" as="geometry" />
        </mxCell>
        <mxCell id="6kBrHfTqFUpDmSiz5ydv-17" value="rs" style="text;html=1;align=center;verticalAlign=middle;resizable=0;points=[];autosize=1;fontSize=7;" parent="6dDkUr7TiwL2FOEABFFe-1" vertex="1">
          <mxGeometry x="534" y="345" width="20" height="12" as="geometry" />
        </mxCell>
        <mxCell id="gDBNp-k2t2mQQm4Rj_xC-0" value="tcaplus" style="strokeWidth=2;html=1;shape=mxgraph.flowchart.database;whiteSpace=wrap;" parent="6dDkUr7TiwL2FOEABFFe-1" vertex="1">
          <mxGeometry x="389" y="441" width="48.72" height="49" as="geometry" />
        </mxCell>
      </root>
    </mxGraphModel>
  </diagram>
  <diagram id="PAEekAYuByo75DrPK0xa" name="Page-3">
    <mxGraphModel dx="1422" dy="794" grid="0" gridSize="10" guides="1" tooltips="1" connect="1" arrows="1" fold="1" page="1" pageScale="1" pageWidth="827" pageHeight="1169" math="0" shadow="0">
      <root>
        <mxCell id="Fji3boXPdOylbTR_ThW_-0" />
        <mxCell id="Fji3boXPdOylbTR_ThW_-1" parent="Fji3boXPdOylbTR_ThW_-0" />
        <mxCell id="Fji3boXPdOylbTR_ThW_-4" value="&lt;font color=&quot;#0000ff&quot; style=&quot;font-size: 36px&quot;&gt;修炼&lt;/font&gt;" style="ellipse;whiteSpace=wrap;html=1;aspect=fixed;fontSize=7;strokeColor=#00CC66;" vertex="1" parent="Fji3boXPdOylbTR_ThW_-1">
          <mxGeometry x="221" y="181" width="108" height="108" as="geometry" />
        </mxCell>
        <mxCell id="Fji3boXPdOylbTR_ThW_-5" value="&lt;font style=&quot;font-size: 16px&quot;&gt;&lt;b&gt;提升技术广度和深度&lt;br&gt;多思、多想&lt;/b&gt;&lt;/font&gt;" style="text;html=1;align=center;verticalAlign=middle;resizable=0;points=[];autosize=1;fontSize=7;" vertex="1" parent="Fji3boXPdOylbTR_ThW_-1">
          <mxGeometry x="367" y="224" width="154" height="22" as="geometry" />
        </mxCell>
        <mxCell id="Fji3boXPdOylbTR_ThW_-6" value="&lt;font color=&quot;#0000ff&quot; style=&quot;font-size: 36px&quot;&gt;沉淀&lt;/font&gt;" style="ellipse;whiteSpace=wrap;html=1;aspect=fixed;fontSize=7;strokeColor=#CC00CC;" vertex="1" parent="Fji3boXPdOylbTR_ThW_-1">
          <mxGeometry x="221" y="326" width="108" height="108" as="geometry" />
        </mxCell>
        <mxCell id="Fji3boXPdOylbTR_ThW_-7" value="&lt;span style=&quot;font-size: 16px&quot;&gt;&lt;b&gt;提升自身影响力&lt;br&gt;&lt;/b&gt;&lt;/span&gt;&lt;b style=&quot;font-size: 16px&quot;&gt;多分享、多总结&lt;/b&gt;&lt;span style=&quot;font-size: 16px&quot;&gt;&lt;b&gt;&lt;br&gt;&lt;/b&gt;&lt;/span&gt;" style="text;html=1;align=center;verticalAlign=middle;resizable=0;points=[];autosize=1;fontSize=7;" vertex="1" parent="Fji3boXPdOylbTR_ThW_-1">
          <mxGeometry x="383" y="370" width="122" height="22" as="geometry" />
        </mxCell>
      </root>
    </mxGraphModel>
  </diagram>
</mxfile>
